<?xml version="1.0" encoding="iso-8859-1"?>
<!-- Generator: Adobe Illustrator 19.0.0, SVG Export Plug-In . SVG Version: 6.00 Build 0)  -->
<svg version="1.1" id="Layer_1" xmlns="http://www.w3.org/2000/svg" xmlns:xlink="http://www.w3.org/1999/xlink" x="0px" y="0px"
	 viewBox="0 0 512 512" style="enable-background:new 0 0 512 512; fill:#fff;" xml:space="preserve">
<g>
	<g>
		<path d="M96.628,141.32c76.85,39.716,132.879,95.455,159.371,158.694c26.492-63.239,82.52-118.978,159.37-158.694
			C328.049,54.341,185.39,52.905,96.628,141.32z"/>
	</g>
</g>
<g>
	<g>
		<path d="M22.628,21.73C10.48,17.697-1.668,27.913,0.189,40.562c5.847,39.81,16.078,93.889,29.25,132.702
			c25.039-44.256,62.912-81.009,109.906-104.565C93.013,45.391,31.965,24.827,22.628,21.73z"/>
	</g>
</g>
<g>
	<g>
		<path d="M489.371,21.73c-9.336,3.096-70.384,23.661-116.716,46.969c46.994,23.557,84.869,60.311,109.906,104.566
			c13.15-38.744,23.398-92.853,29.25-132.705C513.673,27.871,501.478,17.713,489.371,21.73z"/>
	</g>
</g>
<g>
	<g>
		<path d="M438.429,168.2c-74.428,36.703-128.001,88.786-151.657,147.458h5.521c14.694,0,22.652,17.336,13.006,28.472
			l-36.294,41.901c-6.863,7.924-19.162,7.908-26.011,0l-36.295-41.901c-9.617-11.103-1.731-28.472,13.006-28.472h5.522
			C201.57,256.984,147.996,204.903,73.568,168.2c-27.684,37.923-43.474,84.325-43.474,133.262c0,5.131,2.29,9.993,6.244,13.263
			l208.698,172.495c6.363,5.258,15.561,5.258,21.924,0l208.698-172.495c3.954-3.269,6.244-8.132,6.244-13.263
			C481.904,252.525,466.113,206.121,438.429,168.2z M137.036,283.6c-12.571,0-22.762-10.191-22.762-22.762
			c0-12.571,10.191-22.762,22.762-22.762c12.571,0,22.762,10.191,22.762,22.762C159.797,273.41,149.607,283.6,137.036,283.6z
			 M374.965,283.6c-12.571,0-22.762-10.191-22.762-22.762c0-12.571,10.191-22.762,22.762-22.762
			c12.571,0,22.762,10.191,22.762,22.762C397.727,273.41,387.536,283.6,374.965,283.6z"/>
	</g>
</g>
<g>
</g>
<g>
</g>
<g>
</g>
<g>
</g>
<g>
</g>
<g>
</g>
<g>
</g>
<g>
</g>
<g>
</g>
<g>
</g>
<g>
</g>
<g>
</g>
<g>
</g>
<g>
</g>
<g>
</g>
</svg>
